<svg width="274" height="274" viewBox="0 0 274 274" fill="none" xmlns="http://www.w3.org/2000/svg">
<path d="M136.613 88C141.74 88 145.887 92.2515 145.736 97.3683L144.228 149.891C144.115 154.03 140.722 157.303 136.575 157.303C132.429 157.303 129.036 153.992 128.923 149.891L127.452 97.3683C127.339 92.2515 131.448 88 136.613 88ZM136.5 183C131.26 183 127 178.749 127 173.519C127 168.289 131.26 164.038 136.5 164.038C141.74 164.038 146 168.289 146 173.519C146 178.749 141.74 183 136.5 183Z" fill="#403F3F"/>
<circle cx="137" cy="137" r="133.5" stroke="#403F3F" stroke-width="7"/>
</svg>
