<svg width="48" height="41" viewBox="0 0 48 41" fill="none" xmlns="http://www.w3.org/2000/svg">
<g clip-path="url(#clip0_292_2991)">
<path d="M47.9995 14.2548V32.8394C47.9732 32.9129 47.9319 32.9851 47.9244 33.0611C47.4963 37.1578 43.9212 41.0316 38.695 40.9986C28.8897 40.9391 19.0831 40.9822 9.27657 40.9784C8.84095 40.9784 8.40282 40.9543 7.96845 40.91C3.63349 40.478 0.0884091 36.6929 0.0445964 32.3023C-0.0142379 26.4727 -0.0154897 20.6405 0.0445964 14.8109C0.0921645 10.3316 3.79622 6.47558 8.20879 6.19056C9.26655 6.12215 10.3318 6.12595 11.3921 6.15129C12.2133 6.17155 12.7616 5.81939 13.1183 5.09861C13.3073 4.71731 13.4889 4.33222 13.6966 3.96232C15.0736 1.51747 17.1654 0.165838 19.9293 0.0695646C22.6432 -0.0254425 25.3646 -0.0216422 28.0785 0.0682978C30.845 0.159505 32.938 1.50734 34.3187 3.94839C34.5428 4.34488 34.7368 4.75912 34.9446 5.16701C35.2838 5.83586 35.8096 6.16649 36.5682 6.14622C37.3956 6.12468 38.223 6.13609 39.0505 6.14369C43.1426 6.18042 46.6088 8.84695 47.6778 12.7866C47.8093 13.2692 47.8931 13.7658 47.9995 14.256V14.2548ZM35.9435 23.3184C36.0023 23.2741 36.0599 23.2298 36.1188 23.1854C36.2552 23.3767 36.3666 23.5921 36.5306 23.7555C37.1327 24.3534 37.9802 24.3686 38.5422 23.8099C39.103 23.2526 39.108 22.3722 38.5247 21.7705C37.5508 20.7659 36.5682 19.7715 35.5767 18.786C34.9558 18.1691 34.1484 18.1653 33.5326 18.7771C32.5411 19.7626 31.5585 20.757 30.5833 21.7603C29.9937 22.3671 29.9887 23.2323 30.5458 23.7985C31.1016 24.3635 31.949 24.3521 32.5612 23.7694C32.7226 23.6149 32.8791 23.454 33.1195 23.2146C33.1032 23.5275 33.1057 23.701 33.0832 23.872C32.7627 26.3295 31.6787 28.3728 29.7834 29.9461C26.2246 32.9002 21.1148 32.7077 17.7487 29.5319C17.4858 29.2836 17.1478 29.0569 16.8074 28.9669C16.1927 28.8035 15.5994 29.1354 15.319 29.6864C15.0223 30.2692 15.1575 30.9355 15.6757 31.4523C21.4365 37.1806 31.1504 35.4907 34.7193 28.1423C35.4578 26.6209 35.8621 25.0146 35.9435 23.321V23.3184ZM12.0793 22.2835L11.9166 22.4076C11.7689 22.2075 11.6437 21.9833 11.4672 21.8123C10.8626 21.2245 10.0101 21.2321 9.45558 21.8097C8.92106 22.3671 8.91856 23.226 9.48687 23.8137C10.4695 24.8297 11.4635 25.8355 12.4674 26.8299C13.052 27.4088 13.8619 27.4291 14.444 26.8578C15.4754 25.8469 16.4919 24.8183 17.4908 23.7745C18.0366 23.2032 18.0103 22.3506 17.4858 21.8072C16.9425 21.2435 16.1013 21.227 15.5067 21.7806C15.3302 21.9453 15.185 22.1467 15.0261 22.3316C14.9735 22.3 14.9197 22.2683 14.8671 22.2379C14.9635 21.6716 15.021 21.094 15.1625 20.5392C16.9037 13.6695 25.2194 11.2462 30.3117 16.1169C31.0352 16.8085 31.8839 16.8592 32.4698 16.2461C33.0644 15.6241 32.9705 14.7437 32.2345 14.0369C26.9982 9.01417 18.6262 9.78182 14.3676 15.6811C12.9493 17.6459 12.1958 19.8526 12.0793 22.2835Z" fill="#585858"/>
</g>
<defs>
<clipPath id="clip0_292_2991">
<rect width="48" height="41" fill="white"/>
</clipPath>
</defs>
</svg>
