<svg width="21" height="21" viewBox="0 0 21 21" fill="none" xmlns="http://www.w3.org/2000/svg">
<g clip-path="url(#clip0_294_1969)">
<path d="M10.5007 16.3559C13.735 16.3559 16.3569 13.734 16.3569 10.4997C16.3569 7.26546 13.735 4.64355 10.5007 4.64355C7.26644 4.64355 4.64453 7.26546 4.64453 10.4997C4.64453 13.734 7.26644 16.3559 10.5007 16.3559Z" fill="#5C5858"/>
<path d="M11.1514 2.47873V0.62989C11.1514 -0.208914 9.84766 -0.210361 9.84766 0.62989V2.47873C9.84766 3.31753 11.1514 3.31898 11.1514 2.47873Z" fill="#5C5858"/>
<path d="M5.28843 4.36722C4.85287 3.93166 4.41683 3.49561 3.98127 3.06005C3.38701 2.4658 2.46476 3.38757 3.05902 3.9823C3.49458 4.41786 3.93062 4.85391 4.36618 5.28947C4.96044 5.88372 5.88269 4.96195 5.28843 4.36722Z" fill="#5C5858"/>
<path d="M2.47849 9.84814H0.629646C-0.209158 9.84814 -0.210605 11.1519 0.629646 11.1519H2.47849C3.31729 11.1519 3.31874 9.84814 2.47849 9.84814Z" fill="#5C5858"/>
<path d="M4.36624 15.7105C3.93068 16.1461 3.49464 16.5821 3.05908 17.0177C2.46482 17.6119 3.38659 18.5342 3.98133 17.9399L5.28849 16.6328C5.88274 16.0385 4.96098 15.1163 4.36624 15.7105Z" fill="#5C5858"/>
<path d="M9.84766 18.5212V20.3701C9.84766 21.2089 11.1514 21.2103 11.1514 20.3701V18.5212C11.1514 17.6824 9.84766 17.681 9.84766 18.5212Z" fill="#5C5858"/>
<path d="M15.7114 16.6328C16.1469 17.0684 16.583 17.5044 17.0185 17.94C17.6128 18.5342 18.535 17.6125 17.9408 17.0177C17.5052 16.5822 17.0692 16.1461 16.6336 15.7106C16.0394 15.1163 15.1171 16.0381 15.7114 16.6328Z" fill="#5C5858"/>
<path d="M18.5203 11.1519H20.3691C21.2079 11.1519 21.2094 9.84814 20.3691 9.84814H18.5203C17.6815 9.84814 17.68 11.1519 18.5203 11.1519Z" fill="#5C5858"/>
<path d="M16.6337 5.28892C17.0692 4.85336 17.5053 4.41732 17.9408 3.98176C18.5351 3.3875 17.6133 2.46525 17.0186 3.05951C16.583 3.49507 16.147 3.93111 15.7114 4.36667C15.1172 4.96092 16.0389 5.88317 16.6337 5.28892Z" fill="#5C5858"/>
</g>
<defs>
<clipPath id="clip0_294_1969">
<rect width="21" height="21" fill="white"/>
</clipPath>
</defs>
</svg>
