<svg width="254" height="85" viewBox="0 0 254 85" fill="none" xmlns="http://www.w3.org/2000/svg">
<mask id="mask0_273_752" style="mask-type:luminance" maskUnits="userSpaceOnUse" x="0" y="0" width="254" height="85">
<path d="M253.809 0H0V84.9069H253.809V0Z" fill="white"/>
</mask>
<g mask="url(#mask0_273_752)">
<path d="M100.065 71.8619C100.003 71.6407 99.8672 71.4469 99.6808 71.3116C99.4944 71.1764 99.2677 71.1075 99.0372 71.1161C98.8951 71.1022 98.7516 71.1169 98.6154 71.1593C98.4791 71.2017 98.3528 71.271 98.2439 71.3629C98.135 71.4549 98.0458 71.5677 97.9815 71.6947C97.9172 71.8216 97.8792 71.9602 97.8696 72.102C97.8696 72.633 98.3138 72.8858 98.758 73.0248L99.7098 73.3282C100.839 73.6948 101.245 74.3647 101.245 75.0726C101.227 75.3455 101.152 75.6118 101.027 75.8553C100.902 76.0988 100.729 76.3146 100.518 76.4894C100.307 76.6643 100.062 76.7947 99.7988 76.8727C99.5356 76.9508 99.2592 76.9748 98.9864 76.9434C98.4774 76.9819 97.9697 76.8532 97.5411 76.5769C97.1125 76.3007 96.7866 75.8922 96.6133 75.4139L97.4635 75.199C97.5949 75.4856 97.8113 75.7253 98.0836 75.8858C98.3558 76.0462 98.6709 76.1198 98.9864 76.0965C99.7098 76.0965 100.255 75.692 100.255 75.0852C100.255 74.4785 99.9001 74.3268 99.3417 74.1498L98.4407 73.8591C97.527 73.5684 96.8798 73.0501 96.8798 72.1526C96.9243 71.682 97.1289 71.2408 97.4596 70.9019C97.7904 70.563 98.2275 70.3469 98.6985 70.2893C99.1695 70.2318 99.6461 70.3363 100.049 70.5855C100.452 70.8347 100.758 71.2137 100.915 71.6596L100.065 71.8619Z" fill="#222A41"/>
<path d="M103.301 67.5514C103.399 67.5424 103.497 67.5542 103.59 67.5859C103.683 67.6177 103.769 67.6686 103.84 67.7354C103.912 67.8023 103.969 67.8835 104.007 67.9737C104.046 68.064 104.064 68.1613 104.062 68.2592C104.064 68.3527 104.047 68.4455 104.011 68.5321C103.976 68.6188 103.924 68.6975 103.858 68.7636C103.791 68.8297 103.712 68.8817 103.625 68.9167C103.538 68.9517 103.445 68.9688 103.351 68.9671C103.258 68.9689 103.166 68.9517 103.079 68.9166C102.993 68.8815 102.915 68.8292 102.849 68.7629C102.784 68.6967 102.733 68.6178 102.699 68.5312C102.666 68.4446 102.65 68.352 102.653 68.2592C102.648 68.1654 102.662 68.0714 102.695 67.9833C102.728 67.8952 102.779 67.8148 102.844 67.7472C102.91 67.6796 102.989 67.6261 103.076 67.5902C103.163 67.5544 103.257 67.5368 103.351 67.5387M103.846 76.7916H102.793V70.4081H103.757L103.846 76.7916Z" fill="#222A41"/>
<path d="M110.496 73.1638C110.496 71.609 109.697 71.1286 108.872 71.1286C108.047 71.1286 106.918 71.6343 106.892 73.6568V76.7663H105.928V70.4081H106.892V71.7607C107.044 71.3169 107.333 70.9328 107.719 70.6645C108.105 70.3962 108.566 70.2577 109.037 70.2691C109.519 70.2488 109.994 70.3843 110.392 70.6555C110.79 70.9266 111.089 71.3188 111.245 71.7733C111.415 71.3181 111.725 70.9278 112.131 70.6578C112.536 70.3878 113.017 70.2518 113.504 70.2691C114.963 70.2691 116.042 71.0528 116.042 73.1638V76.7916H115.078V73.1638C115.078 71.609 114.278 71.1286 113.453 71.1286C112.628 71.1286 111.537 71.5711 111.473 73.5936V76.8043H110.509L110.496 73.1638Z" fill="#222A41"/>
<path d="M118.021 70.4081H118.986V71.6722C119.239 71.2276 119.609 70.8605 120.056 70.6109C120.504 70.3613 121.011 70.2387 121.524 70.2564C122.413 70.2564 123.265 70.608 123.893 71.2339C124.521 71.8597 124.874 72.7085 124.874 73.5936C124.874 74.4786 124.521 75.3274 123.893 75.9533C123.265 76.5791 122.413 76.9307 121.524 76.9307C121.011 76.9484 120.504 76.8258 120.056 76.5762C119.609 76.3266 119.239 75.9595 118.986 75.5149V79.6358H118.021V70.4081ZM121.448 71.1286C120.874 71.2447 120.358 71.5548 119.988 72.0063C119.617 72.4578 119.415 73.023 119.415 73.6062C119.415 74.1894 119.617 74.7546 119.988 75.2061C120.358 75.6577 120.874 75.9677 121.448 76.0838C122.022 75.9677 122.537 75.6577 122.908 75.2061C123.279 74.7546 123.481 74.1894 123.481 73.6062C123.481 73.023 123.279 72.4578 122.908 72.0063C122.537 71.5548 122.022 71.2447 121.448 71.1286Z" fill="#222A41"/>
<path d="M127.349 67.5134H126.385V76.7916H127.349V67.5134Z" fill="#222A41"/>
<path d="M130.027 67.5514C130.119 67.553 130.209 67.5726 130.293 67.6091C130.377 67.6455 130.453 67.6981 130.517 67.7639C130.581 67.8296 130.631 67.9072 130.664 67.9922C130.698 68.0772 130.714 68.1679 130.712 68.2592C130.716 68.3531 130.7 68.4468 130.666 68.5343C130.631 68.6217 130.579 68.7012 130.512 68.7677C130.446 68.8341 130.366 68.8861 130.278 68.9204C130.19 68.9548 130.096 68.9706 130.002 68.9671C129.909 68.9689 129.816 68.9517 129.73 68.9166C129.643 68.8815 129.565 68.8292 129.5 68.7629C129.434 68.6967 129.383 68.6178 129.35 68.5312C129.316 68.4446 129.3 68.352 129.304 68.2592C129.299 68.1654 129.313 68.0714 129.346 67.9833C129.379 67.8952 129.429 67.8148 129.495 67.7472C129.56 67.6796 129.639 67.6261 129.726 67.5902C129.814 67.5544 129.907 67.5368 130.002 67.5387M130.497 76.7916H129.532V70.4081H130.497V76.7916Z" fill="#222A41"/>
<path d="M135.788 70.2691C136.602 70.2806 137.392 70.5459 138.047 71.0275L137.59 71.6975C137.072 71.3274 136.45 71.1284 135.813 71.1287C135.444 71.0541 135.064 71.0621 134.699 71.152C134.333 71.242 133.993 71.4117 133.702 71.6488C133.41 71.8859 133.176 72.1845 133.015 72.523C132.853 72.8616 132.77 73.2316 132.77 73.6062C132.77 73.9809 132.853 74.3509 133.015 74.6894C133.176 75.028 133.41 75.3266 133.702 75.5637C133.993 75.8008 134.333 75.9705 134.699 76.0604C135.064 76.1504 135.444 76.1583 135.813 76.0838C136.45 76.084 137.072 75.8851 137.59 75.515L138.047 76.1849C137.392 76.6666 136.602 76.9318 135.788 76.9433C135.323 76.9837 134.855 76.9273 134.414 76.7779C133.972 76.6285 133.567 76.3893 133.223 76.0755C132.88 75.7617 132.605 75.3801 132.417 74.9551C132.23 74.53 132.133 74.0706 132.133 73.6062C132.133 73.1418 132.23 72.6825 132.417 72.2574C132.605 71.8323 132.88 71.4508 133.223 71.1369C133.567 70.8231 133.972 70.5839 134.414 70.4345C134.855 70.2851 135.323 70.2288 135.788 70.2691Z" fill="#222A41"/>
<path d="M140.013 67.5514C140.108 67.5496 140.203 67.5671 140.291 67.6029C140.378 67.6386 140.458 67.6918 140.525 67.7593C140.591 67.8267 140.643 67.907 140.677 67.9951C140.712 68.0833 140.728 68.1774 140.724 68.2719C140.728 68.3658 140.712 68.4595 140.677 68.547C140.643 68.6344 140.591 68.7139 140.524 68.7804C140.457 68.8468 140.377 68.8988 140.29 68.9331C140.202 68.9675 140.108 68.9833 140.013 68.9798C139.92 68.9816 139.828 68.9644 139.741 68.9293C139.655 68.8942 139.577 68.8419 139.511 68.7756C139.446 68.7094 139.395 68.6305 139.361 68.5439C139.328 68.4573 139.312 68.3647 139.316 68.2719C139.31 68.1781 139.325 68.0841 139.357 67.996C139.39 67.9079 139.441 67.8275 139.507 67.7599C139.572 67.6922 139.651 67.6388 139.738 67.6029C139.825 67.5671 139.919 67.5495 140.013 67.5514ZM140.508 76.8043H139.595V70.4082H140.559L140.508 76.8043Z" fill="#222A41"/>
<path d="M143.897 74.8703C143.897 75.793 144.379 76.1343 144.848 76.1343C144.966 76.1468 145.084 76.1345 145.196 76.0981C145.308 76.0618 145.412 76.0024 145.499 75.9236C145.586 75.8449 145.656 75.7486 145.704 75.6412C145.751 75.5337 145.776 75.4175 145.775 75.3C145.774 75.1442 145.744 74.9899 145.686 74.845H146.574C146.642 75.0315 146.676 75.2282 146.676 75.4265C146.673 75.6551 146.621 75.8804 146.523 76.0876C146.426 76.2948 146.286 76.4791 146.112 76.6284C145.938 76.7777 145.735 76.8886 145.515 76.9538C145.295 77.0189 145.063 77.0369 144.836 77.0065C143.884 77.0065 142.932 76.5515 142.932 74.8829V71.1792H141.854V70.4081H142.932L143.161 68.4741H143.897V70.4081H145.94V71.1792H143.859L143.897 74.8703Z" fill="#222A41"/>
<path d="M152.247 70.4082H153.364L149.417 79.6611H148.44L149.671 76.7032L146.904 70.4082H148.008L150.191 75.6161L152.247 70.4082Z" fill="#222A41"/>
<path d="M162.438 73.1638C162.438 71.609 161.638 71.1286 160.813 71.1286C159.988 71.1286 158.859 71.6343 158.834 73.6568V76.7663H157.869V70.4081H158.834V71.7607C158.985 71.3169 159.275 70.9328 159.66 70.6645C160.046 70.3962 160.508 70.2576 160.978 70.2691C161.458 70.2516 161.93 70.3884 162.326 70.6593C162.721 70.9303 163.019 71.3209 163.174 71.7733C163.344 71.3181 163.654 70.9278 164.059 70.6578C164.465 70.3878 164.945 70.2518 165.433 70.2691C166.892 70.2691 167.971 71.0528 167.971 73.1638V76.7916H167.006V73.1638C167.006 71.609 166.207 71.1286 165.382 71.1286C164.557 71.1286 163.466 71.5711 163.402 73.5936V76.8043H162.438V73.1638Z" fill="#222A41"/>
<path d="M175.764 75.8437C175.411 76.2099 174.984 76.4981 174.512 76.6897C174.04 76.8813 173.533 76.9721 173.023 76.9561C172.583 76.966 172.145 76.8896 171.735 76.7311C171.325 76.5725 170.95 76.3351 170.632 76.0323C170.314 75.7294 170.058 75.3671 169.881 74.9661C169.703 74.565 169.607 74.133 169.597 73.6948C169.587 73.2565 169.663 72.8206 169.822 72.4119C169.982 72.0033 170.22 71.6298 170.524 71.3129C170.828 70.9959 171.192 70.7418 171.594 70.5649C171.997 70.3879 172.431 70.2918 172.871 70.2818C173.309 70.2625 173.746 70.3363 174.154 70.4981C174.561 70.6599 174.93 70.9061 175.235 71.2205C175.539 71.5348 175.774 71.9101 175.922 72.3214C176.07 72.7327 176.129 73.1707 176.094 73.6063H170.396V73.7074C170.395 74.0429 170.464 74.375 170.599 74.6823C170.734 74.9896 170.932 75.2652 171.181 75.4915C171.43 75.7178 171.723 75.8896 172.043 75.996C172.362 76.1024 172.7 76.1409 173.036 76.1091C173.85 76.1204 174.637 75.8168 175.231 75.2622L175.764 75.8437ZM170.485 72.8731H175.13C175.043 72.3654 174.771 71.9076 174.365 71.5879C173.96 71.2682 173.45 71.1091 172.934 71.1414C172.396 71.1224 171.867 71.2823 171.431 71.5959C170.994 71.9094 170.675 72.3588 170.523 72.8731" fill="#222A41"/>
<path d="M183.428 75.8437C183.075 76.2099 182.648 76.4981 182.176 76.6897C181.704 76.8813 181.197 76.9721 180.687 76.9561C180.247 76.966 179.809 76.8896 179.399 76.7311C178.989 76.5725 178.614 76.3351 178.296 76.0323C177.978 75.7294 177.722 75.3671 177.545 74.9661C177.367 74.565 177.271 74.133 177.261 73.6948C177.251 73.2565 177.327 72.8206 177.487 72.4119C177.646 72.0033 177.884 71.6298 178.188 71.3129C178.492 70.9959 178.856 70.7418 179.258 70.5649C179.661 70.3879 180.095 70.2918 180.535 70.2818C180.973 70.2625 181.41 70.3363 181.818 70.4981C182.226 70.6599 182.594 70.9061 182.899 71.2205C183.203 71.5348 183.438 71.9101 183.586 72.3214C183.734 72.7327 183.793 73.1707 183.758 73.6063H178.047V73.7074C178.046 74.0429 178.115 74.375 178.25 74.6823C178.385 74.9896 178.584 75.2652 178.832 75.4915C179.081 75.7178 179.375 75.8896 179.694 75.996C180.013 76.1024 180.352 76.1409 180.687 76.1091C181.501 76.1204 182.288 75.8168 182.883 75.2622L183.428 75.8437ZM178.149 72.8731H182.743C182.656 72.3654 182.384 71.9076 181.979 71.5879C181.573 71.2682 181.063 71.1091 180.547 71.1414C180.01 71.1224 179.481 71.2823 179.044 71.5959C178.607 71.9094 178.288 72.3588 178.136 72.8731" fill="#222A41"/>
<path d="M186.449 74.8703C186.449 75.793 186.932 76.1343 187.401 76.1343C187.518 76.1468 187.637 76.1345 187.749 76.0981C187.861 76.0618 187.964 76.0024 188.052 75.9236C188.139 75.8449 188.209 75.7486 188.257 75.6412C188.304 75.5337 188.328 75.4175 188.328 75.3C188.326 75.1442 188.296 74.9899 188.239 74.845H189.127C189.194 75.0315 189.229 75.2282 189.229 75.4265C189.225 75.6551 189.173 75.8804 189.076 76.0876C188.979 76.2948 188.839 76.4791 188.665 76.6284C188.491 76.7777 188.288 76.8886 188.067 76.9538C187.847 77.0189 187.616 77.0369 187.389 77.0065C186.437 77.0065 185.485 76.5515 185.485 74.8829V71.1792H184.406V70.4081H185.485L185.713 68.4741H186.449V70.4081H188.531V71.1792H186.449V74.8703Z" fill="#222A41"/>
<path d="M193.263 71.8619C193.201 71.6407 193.065 71.4469 192.879 71.3116C192.693 71.1764 192.466 71.1075 192.235 71.1161C192.093 71.1022 191.95 71.1169 191.814 71.1593C191.677 71.2017 191.551 71.271 191.442 71.3629C191.333 71.4549 191.244 71.5677 191.18 71.6947C191.115 71.8216 191.077 71.9602 191.068 72.1021C191.068 72.633 191.512 72.8858 191.956 73.0248L192.895 73.3156C194.025 73.6821 194.431 74.3521 194.431 75.06C194.41 75.3318 194.335 75.5966 194.209 75.8387C194.084 76.0808 193.91 76.295 193.699 76.4686C193.488 76.6421 193.244 76.7714 192.982 76.8487C192.719 76.9259 192.444 76.9495 192.172 76.9181C191.663 76.9566 191.155 76.8279 190.727 76.5517C190.298 76.2754 189.972 75.8669 189.799 75.3886L190.649 75.1737C190.78 75.4604 190.997 75.7001 191.269 75.8605C191.541 76.021 191.856 76.0945 192.172 76.0712C192.895 76.0712 193.441 75.6667 193.441 75.06C193.441 74.4532 193.086 74.3015 192.527 74.1246L191.626 73.8338C190.713 73.5431 190.065 73.0248 190.065 72.1273C190.11 71.6568 190.314 71.2155 190.645 70.8766C190.976 70.5377 191.413 70.3216 191.884 70.2641C192.355 70.2065 192.832 70.311 193.235 70.5603C193.638 70.8095 193.944 71.1884 194.101 71.6344L193.263 71.8619Z" fill="#222A41"/>
<path d="M202.337 71.8618C202.274 71.6407 202.139 71.4469 201.952 71.3116C201.766 71.1763 201.539 71.1074 201.309 71.116C201.167 71.1022 201.023 71.1169 200.887 71.1593C200.751 71.2017 200.624 71.2709 200.515 71.3629C200.406 71.4548 200.317 71.5676 200.253 71.6946C200.189 71.8216 200.151 71.9601 200.141 72.102C200.141 72.6329 200.585 72.8857 201.029 73.0248L201.981 73.3281C203.111 73.6947 203.517 74.3647 203.517 75.0725C203.496 75.3443 203.421 75.6092 203.295 75.8513C203.169 76.0933 202.996 76.3076 202.785 76.4811C202.574 76.6547 202.33 76.784 202.067 76.8612C201.805 76.9385 201.53 76.9621 201.258 76.9307C200.749 76.9692 200.241 76.8405 199.813 76.5642C199.384 76.288 199.058 75.8795 198.885 75.4012L199.735 75.1863C199.866 75.4729 200.083 75.7126 200.355 75.8731C200.627 76.0335 200.942 76.1071 201.258 76.0838C201.981 76.0838 202.527 75.6793 202.527 75.0725C202.527 74.4658 202.172 74.3141 201.613 74.1371L200.712 73.8464C199.798 73.5557 199.151 73.0374 199.151 72.1399C199.196 71.6693 199.4 71.2281 199.731 70.8892C200.062 70.5503 200.499 70.3342 200.97 70.2767C201.441 70.2191 201.918 70.3236 202.321 70.5728C202.724 70.822 203.029 71.201 203.187 71.6469L202.337 71.8618Z" fill="#222A41"/>
<path d="M210.891 75.8437C210.538 76.2099 210.111 76.4981 209.639 76.6897C209.167 76.8813 208.66 76.9721 208.15 76.9561C207.71 76.966 207.272 76.8896 206.862 76.7311C206.452 76.5725 206.077 76.3351 205.759 76.0323C205.44 75.7294 205.185 75.3671 205.008 74.9661C204.83 74.565 204.734 74.133 204.724 73.6948C204.714 73.2565 204.79 72.8206 204.949 72.4119C205.109 72.0033 205.347 71.6298 205.651 71.3129C205.955 70.9959 206.319 70.7418 206.721 70.5649C207.124 70.3879 207.558 70.2918 207.998 70.2818C208.436 70.2625 208.873 70.3363 209.281 70.4981C209.688 70.6599 210.057 70.9061 210.362 71.2205C210.666 71.5348 210.9 71.9101 211.049 72.3214C211.197 72.7327 211.256 73.1707 211.221 73.6063H205.523V73.7074C205.524 74.0384 205.593 74.3656 205.727 74.6686C205.86 74.9715 206.056 75.2437 206.3 75.468C206.544 75.6924 206.832 75.864 207.146 75.9721C207.46 76.0803 207.793 76.1226 208.125 76.0965C208.939 76.1077 209.726 75.8042 210.32 75.2496L210.891 75.8437ZM205.586 72.8479H210.18C210.094 72.3401 209.821 71.8823 209.416 71.5626C209.011 71.2429 208.501 71.0838 207.985 71.1161C207.447 71.0971 206.918 71.257 206.482 71.5706C206.045 71.8841 205.726 72.3335 205.574 72.8479" fill="#222A41"/>
<path d="M215.84 70.2691C216.654 70.2806 217.444 70.5459 218.099 71.0275L217.642 71.6975C217.125 71.3274 216.503 71.1284 215.866 71.1287C215.497 71.0541 215.117 71.0621 214.751 71.152C214.386 71.242 214.046 71.4117 213.754 71.6488C213.463 71.8859 213.229 72.1845 213.067 72.523C212.906 72.8616 212.823 73.2316 212.823 73.6062C212.823 73.9809 212.906 74.3509 213.067 74.6894C213.229 75.028 213.463 75.3266 213.754 75.5637C214.046 75.8008 214.386 75.9705 214.751 76.0604C215.117 76.1504 215.497 76.1583 215.866 76.0838C216.503 76.084 217.125 75.8851 217.642 75.515L218.099 76.1849C217.444 76.6666 216.654 76.9318 215.84 76.9433C215.376 76.9837 214.908 76.9273 214.467 76.7779C214.025 76.6285 213.62 76.3893 213.276 76.0755C212.932 75.7617 212.658 75.3801 212.47 74.9551C212.283 74.53 212.186 74.0706 212.186 73.6062C212.186 73.1418 212.283 72.6825 212.47 72.2574C212.658 71.8323 212.932 71.4508 213.276 71.1369C213.62 70.8231 214.025 70.5839 214.467 70.4345C214.908 70.2851 215.376 70.2288 215.84 70.2691Z" fill="#222A41"/>
<path d="M220.408 74.0361C220.408 75.6035 221.233 76.0712 222.058 76.0712C222.371 76.0574 222.678 75.9799 222.96 75.8433C223.242 75.7068 223.493 75.5142 223.698 75.2773C223.902 75.0404 224.056 74.7644 224.149 74.4661C224.243 74.1679 224.274 73.8537 224.24 73.5431V70.4082H225.205V76.7917H224.24V75.4392C224.077 75.8989 223.769 76.2937 223.362 76.5648C222.955 76.8359 222.47 76.9687 221.981 76.9434C220.585 76.9434 219.443 76.147 219.443 74.0487V70.4082H220.408V74.0361Z" fill="#222A41"/>
<path d="M228.263 71.9504C228.324 71.491 228.548 71.0686 228.895 70.76C229.242 70.4515 229.689 70.2773 230.154 70.2692C230.337 70.2668 230.518 70.3012 230.687 70.3703V71.3183C230.502 71.2285 230.297 71.1851 230.091 71.1919C229.228 71.1919 228.263 71.9377 228.263 74.3647V76.8043H227.299V70.4082H228.263V71.9504Z" fill="#222A41"/>
<path d="M232.375 67.5514C232.47 67.5496 232.564 67.5671 232.652 67.6029C232.74 67.6386 232.819 67.6918 232.886 67.7593C232.952 67.8267 233.004 67.907 233.039 67.9951C233.073 68.0833 233.089 68.1774 233.085 68.2719C233.089 68.3658 233.073 68.4595 233.039 68.547C233.004 68.6344 232.952 68.7139 232.885 68.7804C232.819 68.8468 232.739 68.8988 232.651 68.9331C232.563 68.9675 232.469 68.9833 232.375 68.9798C232.282 68.9816 232.189 68.9644 232.103 68.9293C232.016 68.8942 231.938 68.8419 231.873 68.7756C231.807 68.7094 231.756 68.6305 231.723 68.5439C231.689 68.4573 231.673 68.3647 231.677 68.2719C231.672 68.1781 231.686 68.0841 231.719 67.996C231.752 67.9079 231.802 67.8275 231.868 67.7599C231.933 67.6922 232.012 67.6388 232.1 67.6029C232.187 67.5671 232.28 67.5495 232.375 67.5514ZM232.87 76.8043H231.905V70.4082H232.87V76.8043Z" fill="#222A41"/>
<path d="M236.258 74.8703C236.258 75.793 236.74 76.1343 237.21 76.1343C237.327 76.1468 237.446 76.1345 237.558 76.0981C237.67 76.0618 237.773 76.0024 237.86 75.9236C237.948 75.8449 238.018 75.7486 238.065 75.6412C238.113 75.5337 238.137 75.4175 238.136 75.3C238.135 75.1442 238.105 74.9899 238.047 74.845H238.936C239.003 75.0315 239.037 75.2282 239.037 75.4265C239.034 75.6551 238.982 75.8804 238.885 76.0876C238.788 76.2948 238.647 76.4791 238.474 76.6284C238.3 76.7777 238.096 76.8886 237.876 76.9538C237.656 77.0189 237.425 77.0369 237.197 77.0065C236.245 77.0065 235.294 76.5515 235.294 74.8829V71.1792H234.215V70.4081H235.294L235.522 68.4741H236.258V70.4081H238.339V71.1792H236.258V74.8703Z" fill="#222A41"/>
<path d="M244.608 70.4082H245.725L241.778 79.6611H240.788L242.032 76.7032L239.266 70.4082H240.37L242.54 75.6161L244.608 70.4082Z" fill="#222A41"/>
<path d="M18.5664 60.953V14.1322H57.3103L53.5159 23.8907H30.4573V33.1942H49.8991L46.3077 42.4219H30.4573V60.953H18.5664Z" fill="#222A41"/>
<path d="M48.9355 60.9657L67.1336 14.1954H78.2124L96.677 60.9657H84.2023L80.9789 52.6734H64.3164L61.2199 60.9657H48.9355ZM66.8671 43.1677H78.2885L72.7174 26.7349L66.8671 43.1677Z" fill="#222A41"/>
<path d="M122.819 13.399C130.345 13.399 135.307 16.003 140.142 19.9595L134.367 28.3276C131.265 25.3622 127.118 23.7282 122.819 23.777C114.228 23.777 108.86 29.8697 108.86 37.5552C108.86 45.2407 114.24 51.3335 122.819 51.3335C127.118 51.3823 131.265 49.7482 134.367 46.7829L140.142 55.151C135.307 59.0948 130.332 61.7114 122.819 61.7114C106.905 61.6988 96.8926 50.5624 96.8926 37.5426C96.8926 24.5228 106.905 13.399 122.819 13.399Z" fill="#222A41"/>
<path d="M146.943 60.953V14.1322H179.317V23.8907H158.834V33.1942H176.626V42.4219H158.834V51.1945H179.317V60.953H146.943Z" fill="#222A41"/>
<path d="M199.735 60.9656H187.818V14.1954H199.709V35.0777L212.565 14.1322H224.621V15.7376L210.953 36.8094L216.194 46.8461C218.732 51.6622 219.887 52.1299 222.311 52.1299C223.499 52.0016 224.632 51.5658 225.598 50.8658C226.867 53.672 228.212 56.3518 229.494 59.0948C226.638 60.805 223.358 61.6811 220.027 61.6229C214.379 61.6229 209.278 58.7535 206.067 51.9276L199.722 39.148L199.735 60.9656Z" fill="#222A41"/>
<path d="M7.28497 22.5635H6.80273V7.67285H21.7521V8.14055H7.28497V22.5635Z" fill="#F8B427"/>
<path d="M7.28497 22.5635H6.80273V7.67285H21.7521V8.14055H7.28497V22.5635Z" stroke="#F8B427" stroke-width="2.85" stroke-miterlimit="10"/>
<path d="M21.7521 66.755H6.80273V51.8644H7.28497V66.2747H21.7521V66.755Z" fill="#F8B427"/>
<path d="M21.7521 66.755H6.80273V51.8644H7.28497V66.2747H21.7521V66.755Z" stroke="#F8B427" stroke-width="2.85" stroke-miterlimit="10"/>
<path d="M66.1173 66.755H51.168V66.2747H65.6351V51.8644H66.1173V66.755Z" fill="#F8B427"/>
<path d="M66.1173 66.755H51.168V66.2747H65.6351V51.8644H66.1173V66.755Z" stroke="#F8B427" stroke-width="2.85" stroke-miterlimit="10"/>
<path d="M66.1173 22.5635H65.6351V8.14055H51.168V7.67285H66.1173V22.5635Z" fill="#F8B427"/>
<path d="M66.1173 22.5635H65.6351V8.14055H51.168V7.67285H66.1173V22.5635Z" stroke="#F8B427" stroke-width="2.85" stroke-miterlimit="10"/>
<path d="M245.954 14.2587H234.051V61.1427H245.954V14.2587Z" fill="#222A41"/>
</g>
</svg>
