<svg width="248" height="248" viewBox="0 0 248 248" fill="none" xmlns="http://www.w3.org/2000/svg">
<g clip-path="url(#clip0_273_98)">
<path d="M0 0V112.698H112.698V0H0ZM135.302 0V112.698H248V0H135.302ZM22.4428 22.4428H90.2553V90.2553H22.4428V22.4428ZM157.745 22.4428H225.557V90.2553H157.745V22.4428ZM45.0469 45.3697V67.8125H67.8125V45.3697H45.0469ZM180.188 45.3697V67.8125H202.63V45.3697H180.188ZM0 135.302V248H112.698V135.302H0ZM135.302 135.302V248H157.745V180.511H180.188V202.953H248V135.302H225.557V157.745H202.63V135.302H135.302ZM22.4428 157.745H90.2553V225.557H22.4428V157.745ZM45.0469 180.188V202.953H67.8125V180.188H45.0469ZM180.188 225.557V248H202.63V225.557H180.188ZM225.557 225.557V248H248V225.557H225.557Z" fill="#383838"/>
</g>
<defs>
<clipPath id="clip0_273_98">
<rect width="248" height="248" fill="white"/>
</clipPath>
</defs>
</svg>
