<svg width="22" height="15" viewBox="0 0 22 15" fill="none" xmlns="http://www.w3.org/2000/svg">
<g clip-path="url(#clip0_294_1979)">
<path d="M0.789062 7.50003C1.95714 11.323 6.08707 14.1483 11.0002 14.1483C15.9134 14.1483 20.0433 11.323 21.2114 7.50003C20.0433 3.67702 15.9134 0.851746 11.0002 0.851746C6.08707 0.851746 1.95714 3.67702 0.789062 7.50003Z" fill="#5C5858"/>
<path d="M10.9989 15C5.84941 15 1.34138 12.0263 0.0405115 7.76768C-0.0135038 7.59491 -0.0135038 7.40753 0.0405115 7.23232C1.34138 2.97372 5.84941 0 10.9989 0C16.1483 0 20.6564 2.97372 21.9595 7.23232C22.0135 7.40509 22.0135 7.59247 21.9595 7.76768C20.6586 12.0263 16.1506 15 10.9989 15ZM1.62271 7.5C2.8223 10.9263 6.63038 13.2966 10.9989 13.2966C15.3674 13.2966 19.1754 10.9263 20.375 7.5C19.1754 4.07365 15.3674 1.70344 10.9989 1.70344C6.63038 1.70344 2.8223 4.07365 1.62271 7.5Z" fill="#5C5858"/>
<path d="M11.0008 13.114C13.8684 13.114 16.193 10.6005 16.193 7.49997C16.193 4.39942 13.8684 1.88593 11.0008 1.88593C8.13323 1.88593 5.80859 4.39942 5.80859 7.49997C5.80859 10.6005 8.13323 13.114 11.0008 13.114Z" fill="white"/>
<path d="M11.0012 11.1843C12.8831 11.1843 14.4087 9.53475 14.4087 7.49997C14.4087 5.46519 12.8831 3.81567 11.0012 3.81567C9.11933 3.81567 7.59375 5.46519 7.59375 7.49997C7.59375 9.53475 9.11933 11.1843 11.0012 11.1843Z" fill="#5C5858"/>
<path d="M10.3959 5.17841C10.3959 6.09827 9.70493 6.84535 8.85419 6.84535C8.00345 6.84535 7.3125 6.09827 7.3125 5.17841C7.3125 4.25855 8.00345 3.51147 8.85419 3.51147C9.70493 3.51147 10.3959 4.25855 10.3959 5.17841Z" fill="white"/>
</g>
<defs>
<clipPath id="clip0_294_1979">
<rect width="22" height="15" fill="white"/>
</clipPath>
</defs>
</svg>
