<svg width="47" height="47" viewBox="0 0 47 47" fill="none" xmlns="http://www.w3.org/2000/svg">
<path d="M23.4988 46.53C10.7806 46.53 0.46875 36.2182 0.46875 23.5C0.46875 10.7818 10.7806 0.469971 23.4988 0.469971C36.217 0.469971 46.5288 10.7818 46.5288 23.5C46.5288 36.2182 36.217 46.53 23.4988 46.53ZM23.4988 3.30877C12.3457 3.30877 3.30755 12.3516 3.30755 23.5C3.30755 34.6484 12.3504 43.6912 23.4988 43.6912C34.6472 43.6912 43.6899 34.6484 43.6899 23.5C43.6899 12.3516 34.6472 3.30877 23.4988 3.30877Z" fill="#5C5C5C"/>
<path d="M25.1692 10.2836C27.2513 10.2836 27.867 11.4915 27.867 12.8733C27.867 14.5982 26.4805 16.1962 24.1258 16.1962C22.1518 16.1962 21.2165 15.2045 21.2729 13.5642C21.2729 12.1824 22.4291 10.2836 25.1692 10.2836ZM19.83 36.7446C18.4106 36.7446 17.3625 35.8845 18.3589 32.0822L19.9898 25.3471C20.2765 24.2661 20.3235 23.8337 19.9898 23.8337C19.5668 23.8337 17.7197 24.581 16.6246 25.3142L15.9102 24.1486C19.3741 21.2581 23.3503 19.5614 25.0611 19.5614C26.4805 19.5614 26.7202 21.244 26.0058 23.8337L24.1399 30.9166C23.8062 32.1715 23.9519 32.6039 24.2809 32.6039C24.7039 32.6039 26.1045 32.0869 27.4816 31.0059L28.2853 32.0869C24.9201 35.4521 21.2494 36.7493 19.8253 36.7493L19.83 36.7446Z" fill="#5C5C5C"/>
</svg>
