<svg width="28" height="22" viewBox="0 0 28 22" fill="none" xmlns="http://www.w3.org/2000/svg">
<path d="M10.3854 0.523271C11.0831 -0.174448 12.206 -0.174449 12.9037 0.523271C13.2526 0.872133 13.427 1.32456 13.427 1.78244C13.427 2.24032 13.2526 2.69275 12.9037 3.04161L6.72233 9.21753L25.5717 9.21753C26.5529 9.21753 27.3542 10.0134 27.3542 11C27.3542 11.9866 26.5583 12.7824 25.5717 12.7824L6.72233 12.7824L12.9037 18.9584C13.6014 19.6561 13.6014 20.779 12.9037 21.4767C12.206 22.1744 11.0831 22.1744 10.3854 21.4767L1.16782 12.2592C0.829863 11.9267 0.644531 11.4742 0.644531 11C0.644531 10.5258 0.829863 10.0733 1.16782 9.74082L10.3854 0.523271Z" fill="#3D3D3D"/>
</svg>
